<svg xmlns="http://www.w3.org/2000/svg" fill="rgba(63,129,37,0.096)" width="48" height="48"><path d="M43.79 7.897c-5.444-5.394-14.148-5.506-19.787-.432-5.64-5.074-14.341-4.962-19.788.432a14.13 14.13 0 0 0 0 20.123l16.58 16.412a4.563 4.563 0 0 0 6.417 0l16.58-16.412a14.126 14.126 0 0 0-.002-20.122zm-2.138 18.005-16.58 16.412a1.517 1.517 0 0 1-2.137 0L6.355 25.902a11.165 11.165 0 0 1 0-15.886c4.266-4.223 11.124-4.371 15.614-.333l2.034 1.83 2.032-1.83c4.491-4.038 11.349-3.891 15.615.333a11.166 11.166 0 0 1 .002 15.886zM13.88 11.252a.75.75 0 1 1 0 1.5h-.002a4.874 4.874 0 0 0-4.873 4.874v.001a.75.75 0 0 1-1.5 0 6.373 6.373 0 0 1 6.369-6.373l.006-.002z"/></svg>