<svg xmlns="http://www.w3.org/2000/svg" viewBox="0 0 48 48" fill="rgba(63,129,37,0.096)" width="48px" height="48px">
    <path
        d="M43.79 7.897c-5.444-5.394-14.148-5.506-19.787-0.432-5.64-5.074-14.341-4.962-19.788 0.432-5.612 5.556-5.612 14.563 0 20.123 1.604 1.588 16.58 16.412 16.58 16.412 1.774 1.758 4.644 1.758 6.417 0 0 0 16.398-16.233 16.58-16.412 5.613-5.559 5.613-14.567-0.002-20.122zM41.652 25.902l-16.58 16.412c-0.59 0.587-1.551 0.587-2.137 0l-16.58-16.412c-4.425-4.38-4.425-11.506 0-15.886 4.266-4.223 11.124-4.371 15.614-0.333l2.034 1.83 2.032-1.83c4.491-4.038 11.349-3.891 15.615 0.333 4.425 4.378 4.425 11.505 0.002 15.886zM13.88 11.252c0.415 0 0.75 0.336 0.75 0.75s-0.336 0.75-0.75 0.75h-0.002c-2.691 0-4.873 2.182-4.873 4.874v0.001c0 0.414-0.336 0.75-0.75 0.75s-0.75-0.336-0.75-0.75v0c0-3.519 2.851-6.37 6.369-6.373 0.003 0 0.003-0.002 0.006-0.002z">
    </path>
</svg>